<svg width="41" height="41" viewBox="0 0 41 41" fill="none" xmlns="http://www.w3.org/2000/svg">
<path d="M29.042 34.1667H11.9587V35.875C11.9587 36.3281 11.7787 36.7627 11.4583 37.083C11.1379 37.4033 10.7034 37.5833 10.2503 37.5833H8.54199C8.08891 37.5833 7.65439 37.4033 7.33401 37.083C7.01365 36.7627 6.83366 36.3281 6.83366 35.875V34.1667H5.12533V20.5H3.41699V13.6667H5.12533V8.54167C5.12533 7.63552 5.48529 6.76647 6.12605 6.12572C6.76679 5.48496 7.63584 5.125 8.54199 5.125H32.4587C33.3648 5.125 34.2338 5.48496 34.8746 6.12572C35.5154 6.76647 35.8753 7.63552 35.8753 8.54167V13.6667H37.5837V20.5H35.8753V34.1667H34.167V35.875C34.167 36.3281 33.9869 36.7627 33.6666 37.083C33.3463 37.4033 32.9117 37.5833 32.4587 37.5833H30.7503C30.2973 37.5833 29.8627 37.4033 29.5424 37.083C29.2221 36.7627 29.042 36.3281 29.042 35.875V34.1667ZM8.54199 8.54167V23.9167H32.4587V8.54167H8.54199ZM8.54199 27.3333V30.75H15.3753V27.3333H8.54199ZM25.6253 27.3333V30.75H32.4587V27.3333H25.6253Z" fill="#F28B50"/>
</svg>
