<svg width="41" height="41" viewBox="0 0 41 41" fill="none" xmlns="http://www.w3.org/2000/svg">
<path d="M29.4688 7.6875C31.5915 7.6875 33.3125 5.9666 33.3125 3.84375C33.3125 1.72091 31.5915 0 29.4688 0C27.346 0 25.625 1.72091 25.625 3.84375C25.625 5.9666 27.346 7.6875 29.4688 7.6875Z" fill="#F28B50"/>
<path d="M0 30.75C0 26.8286 2.93606 23.593 6.72979 23.1216L12.8125 27.1766V36.48C11.4525 37.6972 9.65642 38.4375 7.6875 38.4375C3.44182 38.4375 0 34.9956 0 30.75Z" fill="#F28B50"/>
<path d="M28.1875 36.48C29.5477 37.6972 31.3435 38.4375 33.3125 38.4375C37.5583 38.4375 41 34.9958 41 30.75C41 26.5042 37.5583 23.0625 33.3125 23.0625C31.3435 23.0625 29.5477 23.8027 28.1875 25.02V36.48Z" fill="#F28B50"/>
<path d="M21.2203 12.8495C21.2566 12.8254 21.2991 12.8125 21.3426 12.8125C21.4261 12.8125 21.5024 12.8597 21.5397 12.9343L24.0413 17.9375H33.3125V12.8125H27.2086L26.1237 10.6423C25.2182 8.83143 23.3673 7.6875 21.3426 7.6875C20.2873 7.6875 19.2556 7.99987 18.3775 8.58525L12.4571 12.5322C11.0783 13.4514 10.25 14.999 10.25 16.6562C10.25 18.3135 11.0783 19.8611 12.4571 20.7803L17.9375 24.4339V33.3125H23.0625V21.6911L15.5102 16.6562L21.2203 12.8495Z" fill="#F28B50"/>
</svg>
