<svg width="41" height="41" viewBox="0 0 41 41" fill="none" xmlns="http://www.w3.org/2000/svg">
<g clip-path="url(#clip0_208_3814)">
<path d="M37.5833 23.0625V35.875C37.5833 36.3281 37.4033 36.7627 37.083 37.083C36.7626 37.4033 36.3281 37.5834 35.875 37.5834H34.1667C33.7136 37.5834 33.279 37.4033 32.9587 37.083C32.6384 36.7627 32.4583 36.3281 32.4583 35.875V34.1667H8.54167V35.875C8.54167 36.3281 8.36168 36.7627 8.04131 37.083C7.72093 37.4033 7.28642 37.5834 6.83333 37.5834H5.125C4.67192 37.5834 4.2374 37.4033 3.91702 37.083C3.59666 36.7627 3.41667 36.3281 3.41667 35.875V23.0625L1.29321 22.533C0.923786 22.4404 0.595882 22.2272 0.361577 21.9268C0.127275 21.6267 1.00108e-05 21.2567 0 20.8759V19.6459C0 19.4193 0.0899923 19.2021 0.25018 19.0418C0.410367 18.8817 0.627628 18.7917 0.854167 18.7917H4.05729L7.70971 9.05079C7.95388 8.39939 8.39109 7.83805 8.96287 7.4418C9.53465 7.04555 10.2137 6.83329 10.9094 6.83337H30.0906C30.7862 6.83329 31.4653 7.04555 32.0371 7.4418C32.6088 7.83805 33.0462 8.39939 33.2903 9.05079L36.9427 18.7917H40.1458C40.3724 18.7917 40.5897 18.8817 40.7499 19.0418C40.91 19.2021 41 19.4193 41 19.6459V20.8759C41 21.2567 40.8727 21.6267 40.6383 21.9268C40.4041 22.2272 40.0761 22.4404 39.7068 22.533L37.5833 23.0625ZM6.83333 25.625V29.0417C6.83333 29.4948 7.01332 29.9294 7.33369 30.2497C7.65407 30.57 8.08858 30.75 8.54167 30.75H14.0852C14.2327 30.7499 14.3776 30.7114 14.5059 30.6385C14.6341 30.5655 14.7413 30.4608 14.817 30.3342C14.8927 30.2076 14.9343 30.0635 14.9378 29.916C14.9413 29.7686 14.9065 29.6227 14.8369 29.4927C13.4617 26.9131 10.7933 25.625 6.83333 25.625ZM34.1667 25.625C30.2085 25.625 27.54 26.9148 26.1614 29.4927C26.0917 29.6229 26.057 29.7689 26.0605 29.9165C26.064 30.0641 26.1059 30.2083 26.1817 30.3349C26.2576 30.4615 26.3651 30.5664 26.4935 30.6392C26.622 30.7119 26.7672 30.75 26.9148 30.75H32.4583C32.9114 30.75 33.346 30.57 33.6663 30.2497C33.9866 29.9294 34.1667 29.4948 34.1667 29.0417V25.625ZM10.25 10.25L7.58329 18.2519C7.49781 18.5086 7.47449 18.7818 7.51528 19.0493C7.5561 19.3168 7.65983 19.5707 7.81795 19.7902C7.97609 20.0097 8.1841 20.1886 8.42485 20.312C8.66562 20.4353 8.93224 20.4999 9.20279 20.5H31.7972C32.0678 20.4999 32.3343 20.4353 32.5752 20.312C32.8159 20.1886 33.024 20.0097 33.182 19.7902C33.3402 19.5707 33.4439 19.3168 33.4847 19.0493C33.5255 18.7818 33.5021 18.5086 33.4167 18.2519L30.75 10.25H10.25Z" fill="#F28B50"/>
</g>
<defs>
<clipPath id="clip0_208_3814">
<rect width="41" height="41" fill="white"/>
</clipPath>
</defs>
</svg>
