<svg width="41" height="41" viewBox="0 0 41 41" fill="none" xmlns="http://www.w3.org/2000/svg">
<path d="M37.5837 20.5V35.875C37.5837 36.328 37.4036 36.7626 37.0833 37.083C36.763 37.4033 36.3284 37.5833 35.8753 37.5833H34.167C33.7139 37.5833 33.2793 37.4033 32.959 37.083C32.6387 36.7626 32.4587 36.328 32.4587 35.875V34.1667H8.54199V35.875C8.54199 36.328 8.362 36.7626 8.04164 37.083C7.72126 37.4033 7.28674 37.5833 6.83366 37.5833H5.12533C4.67224 37.5833 4.23773 37.4033 3.91735 37.083C3.59698 36.7626 3.41699 36.328 3.41699 35.875V20.5L7.65366 10.6122C7.91729 9.99717 8.35572 9.47312 8.91449 9.10504C9.47329 8.73696 10.1279 8.54107 10.797 8.54167H15.3753V5.125H25.6253V8.54167H30.2054C30.8738 8.54173 31.5278 8.73795 32.0859 9.10598C32.644 9.47401 33.0819 9.9977 33.3453 10.6122L37.5837 20.5ZM7.13433 20.5H33.8663L30.2054 11.9583H10.797L7.13433 20.5ZM11.1045 29.0417C11.7841 29.0417 12.4359 28.7717 12.9165 28.2912C13.397 27.8106 13.667 27.1587 13.667 26.4792C13.667 25.7996 13.397 25.1477 12.9165 24.6671C12.4359 24.1866 11.7841 23.9167 11.1045 23.9167C10.4249 23.9167 9.77309 24.1866 9.29253 24.6671C8.81198 25.1477 8.54199 25.7996 8.54199 26.4792C8.54199 27.1587 8.81198 27.8106 9.29253 28.2912C9.77309 28.7717 10.4249 29.0417 11.1045 29.0417ZM29.8962 29.0417C30.5757 29.0417 31.2276 28.7717 31.7082 28.2912C32.1887 27.8106 32.4587 27.1587 32.4587 26.4792C32.4587 25.7996 32.1887 25.1477 31.7082 24.6671C31.2276 24.1866 30.5757 23.9167 29.8962 23.9167C29.2166 23.9167 28.5647 24.1866 28.0841 24.6671C27.6036 25.1477 27.3337 25.7996 27.3337 26.4792C27.3337 27.1587 27.6036 27.8106 28.0841 28.2912C28.5647 28.7717 29.2166 29.0417 29.8962 29.0417Z" fill="#F28B50"/>
</svg>
