<svg width="41" height="41" viewBox="0 0 41 41" fill="none" xmlns="http://www.w3.org/2000/svg">
<path d="M13.0121 14.883L18.4873 10.906C19.102 10.4562 19.8495 10.2252 20.6108 10.25C21.5392 10.2731 22.4375 10.585 23.1806 11.1422C23.9236 11.6995 24.4747 12.4743 24.7569 13.3592C25.0746 14.3551 25.3651 15.0282 25.6281 15.3784C26.423 16.4389 27.4542 17.2996 28.6398 17.8921C29.8253 18.4847 31.1327 18.7925 32.4581 18.7917V22.2083C30.6939 22.2102 28.9512 21.8211 27.3554 21.0687C25.7597 20.3164 24.3506 19.2194 23.2296 17.8572L22.0389 24.6137L25.5598 27.5691L29.3574 38.0036L26.1458 39.1721L22.6608 29.5986L16.8695 24.7384C16.3943 24.3547 16.0306 23.8504 15.8164 23.2784C15.6022 22.7063 15.5452 22.0872 15.6515 21.4857L16.521 16.5572L15.3645 17.3977L11.7309 22.3997L8.9668 20.3907L12.9831 14.8625L13.0121 14.883ZM23.0622 9.39583C22.1561 9.39583 21.2871 9.03587 20.6463 8.39511C20.0055 7.75436 19.6456 6.88532 19.6456 5.97917C19.6456 5.07302 20.0055 4.20397 20.6463 3.56322C21.2871 2.92246 22.1561 2.5625 23.0622 2.5625C23.9685 2.5625 24.8375 2.92246 25.4781 3.56322C26.1189 4.20397 26.4789 5.07302 26.4789 5.97917C26.4789 6.88532 26.1189 7.75436 25.4781 8.39511C24.8375 9.03587 23.9685 9.39583 23.0622 9.39583ZM17.9851 31.9134L12.4945 38.4563L9.87734 36.2611L14.9613 30.2033L16.2358 26.4792L19.2953 29.0417L17.9851 31.9134Z" fill="#F28B50"/>
</svg>
